# xmcd
#
# Track frame offsets: 
#        150
#        22035
#        43752
#        63515
#        84803
#        106527
#        127709
#        151648
#        174208
#        196178
#        213803
#        232856
#        255624
#        276291
#        301871
#
# Disc length: 4221 seconds
#
# Revision: 0
# Processed by: cddbd v1.5.2PL0 Copyright (c) Steve Scherf et al.
# Submitted via: ExactAudioCopy v0.95a5
#
DISCID=a8107b0f
DTITLE=Various Artist - À¶µ÷Çé¸è
DYEAR=2008
DGENRE=Blues
TTITLE0=AT YOUR BEST
TTITLE1=I'M CONNA FIN 
TTITLE2=IF WAS THE ONE
TTITLE3=LOSING THE LOVE
TTITLE4=YES I LOVE YOU
TTITLE5=ON MY OWN
TTITLE6=IN THE LATE OF NIGHT
TTITLE7=I WANNA KNOW
TTITLE8=THE COLOR OF LOVE
TTITLE9=LEAD THE WHY
TTITLE10=I LOVE YOU
TTITLE11=I HOPE THINGS CHANGA
TTITLE12=YOU ARE MY LIFE
TTITLE13=IT'S ALL RIGHT
TTITLE14=THE WAY YOU LOOK TONIGHT
EXTD=
EXTT0=
EXTT1=
EXTT2=
EXTT3=
EXTT4=
EXTT5=
EXTT6=
EXTT7=
EXTT8=
EXTT9=
EXTT10=
EXTT11=
EXTT12=
EXTT13=
EXTT14=
PLAYORDER=
